<svg xmlns="http://www.w3.org/2000/svg" width="215" height="53">
  <path
    d="M103.7 5.1h6l-5.5 24.6h-6.9l-6.1-16.3-3.5 16.1h-6l5.4-24.3h7l6.2 16.1 3.4-16.2zm24.2 5.2l-4.4 19.1h-6.2l4.4-19.1h-7.8l1.2-5.2h21.7l-1.2 5.2h-7.7z"
    fill="#646569"
  />
  <path
    d="M159.6 7.5c-1.8 0-3.4-1.4-3.4-3.3s1.5-3.3 3.4-3.3c1.8 0 3.4 1.4 3.4 3.3-.1 1.8-1.6 3.3-3.4 3.3M144 27.1c.4 0 .8-.1 1.3-.7l.2-.2 2.1 2.1-.1.2c-1.3 2-3.1 2.6-4.9 2.6-3.2 0-4.8-2-4.8-4.8 0-.7.1-1.5.3-2.3l5-20.7-3.8-3.3h9.7l-5.5 23.9c-.2.8-.3 1.5-.3 1.9 0 1.1.2 1.3.8 1.3m16.4-.9l-.2.2c-.5.6-.9.7-1.3.7-.6 0-.8-.2-.8-1.2 0-.5.1-1.1.3-1.9l3.5-14.1h-9.8l3.6 2.6-2.9 11.4c-.2.8-.3 1.6-.3 2.3 0 2.8 1.6 4.8 4.8 4.8 1.8 0 3.6-.6 4.9-2.6l.1-.2-1.9-2zm23.3 4.8c-3.3 0-4.9-2-5-4.7 0-.8.1-1.6.3-2.4l1.5-5.5c.2-.6.2-1.1.2-1.6 0-1.7-.9-2.6-2.6-2.6-2 0-3.4 1.4-4.1 4.4l-3 12h-5.7l4.6-17.8-3.5-3h8.8l-.8 3.7c1.5-2.2 3.9-4 6.4-4 3 0 5.5 2.2 5.5 6.3 0 1-.1 2.2-.5 3.4l-1.5 5.3c-.1.6-.2 1-.2 1.4 0 .9.3 1.1.8 1.2.3 0 .7-.1 1.2-.8l.2-.2 2 2-.1.2c-1 1.8-2.6 2.7-4.5 2.7zm24.4-5.6l-.5.2c-2.5 1.3-4.6 1.8-6.6 1.8-3.7 0-5.5-3-5.5-5.2v-.1h13.9l.1-.2c.5-1.6.7-3.1.7-4.5 0-5.2-3.7-8-8.9-8.1-6.2 0-11.2 5.5-11.2 12.5 0 5.7 4.7 8.9 9.8 8.9 2.9 0 4.7-.4 6.8-1.3l1.4-4zm-3-6.9v.2h-9.6l.1-.3c1-2.8 3.1-4.7 5.7-4.7 2.5 0 4 1.3 4 3.4 0 .4 0 .9-.2 1.4z"
    fill="#b6bd00"
  />
  <path
    d="M9.5 5.1h17.4l-1.2 5.1H14.4l-1.2 5h9.3l-1.2 5.1H12l-2 9.1H3.9L9.5 5.1zm23.4 24.3h-6.2l5.6-24.3h9.2c1.4 0 2.7.2 3.8.5 1.1.4 2 .9 2.8 1.5.7.6 1.3 1.4 1.7 2.3.4.9.6 1.8.5 2.8 0 1-.2 2-.6 2.8-.4.9-.8 1.6-1.4 2.3-.6.7-1.3 1.2-2.1 1.7s-1.7.8-2.6 1.1l3.5 9.3h-6.6l-2.9-8.3-2.8.2-1.9 8.1zm5.5-12.7c.7 0 1.4-.1 2-.2.6-.1 1.2-.3 1.7-.6s.9-.7 1.2-1.1c.3-.5.5-1.1.5-1.8 0-1-.3-1.8-1.1-2.3-.7-.5-1.6-.7-2.8-.7h-2.6l-1.7 6.8 2.8-.1zM67.2 6.3c5.5 2 8 8 5.6 13.3v.1c-1.6 3.5-5.9 5.3-9.5 4-.5-.2-.9-.4-1.3-.7 1.1 2.2 3 3.9 5.5 4.9 1.4.5 4 .8 4.4.6 2.5-.9 5.3-3.7 6.7-6.7 3-6.6 0-13.9-6.8-16.4-3.8-1.3-7.4-1-10.7.4 2.1-.4 4-.3 6.1.5z"
    fill="#646569"
  />
  <path
    d="M65.2 28.5c-5.5-2-8-8-5.6-13.3v-.1c1.6-3.5 5.9-5.3 9.5-4 .5.2.9.4 1.3.7-1.1-2.2-3-3.9-5.5-4.9-1.4-.5-4-.8-4.4-.6-2.3.9-5.1 3.7-6.5 6.7-3 6.6 0 13.9 6.8 16.4 3.5 1.3 7.1 1.1 10.4-.4-2 .4-3.9.2-6-.5z"
    fill="#b6bd00"
  />
  <path
    d="M63.7 49.9c0 1.2.1 1.4.7 1.5h.4c.1.1.1.4 0 .5-.6 0-1.3-.1-2-.1s-1.4 0-2 .1c-.1-.1-.2-.4 0-.5h.4c.7-.1.7-.3.7-1.5v-3.7c0-1.2-.1-1.4-.7-1.5h-.4c-.1-.1-.1-.4 0-.5.6 0 1.3.1 2 .1s1.4 0 2-.1c.1.1.2.4 0 .5h-.4c-.7.1-.7.3-.7 1.5v3.7zm12.6 0V52c-.1.1-.2.2-.3.2h-.2c-.2-.3-.5-.6-1.6-1.8l-2.7-2.9c-.6-.7-1.1-1.2-1.3-1.4v2.7c0 .8.1 1.4.1 1.6.1.7.2 1 .7 1h.4c.1.1.1.4 0 .5-.6 0-1-.1-1.5-.1s-.9 0-1.5.1c-.2-.1-.2-.4 0-.5l.4-.1c.5-.1.6-.3.7-1 0-.2.1-.8.1-1.6v-2.4c0-1 0-1.2-.2-1.4-.1-.1-.6-.3-.8-.3l-.2-.1c-.1-.1-.1-.5.1-.5.7.1 1.3.1 1.8.1.4 0 .7 0 1.2-.1.2.4.5.9 1.4 1.8l1.6 1.7 1.3 1.3v-1.7c0-.8-.1-1.4-.1-1.6-.1-.7-.2-.9-.7-1l-.5-.1c-.1-.1-.1-.4 0-.5.6 0 1 .1 1.5.1s.9 0 1.5-.1c.2.1.2.4 0 .5l-.4.1c-.5.1-.6.3-.7 1 0 .2-.1.8-.1 1.6v2.8zm9.2-5.7c.1.4.3 1.1.3 1.8-.1.2-.4.2-.5.1-.3-1-1-1.5-1.8-1.5s-1.2.4-1.2 1.1c0 .7.7 1.1 1.4 1.4 1.2.5 2.4 1.2 2.4 2.7 0 1.6-1.5 2.4-3.2 2.4-1 0-1.9-.2-2.4-.6-.3-.5-.4-1.3-.3-2 .1-.1.4-.2.5 0 .3 1.1 1.1 2 2.3 2 .7 0 1.3-.4 1.3-1.1 0-.8-.6-1.3-1.5-1.7-1.1-.5-2.2-1.2-2.2-2.5 0-1.5 1.3-2.3 3.1-2.3.8-.1 1.4.1 1.8.2zm3.4.4c-.1-.1-.1-.4 0-.5.6 0 1.3.1 2 .1s1.4 0 2-.1c.1.1.2.4 0 .5h-.4c-.5.1-.5.4-.5 1.6v2.5c0 1.6.6 2.8 2 2.8 1.5 0 2.1-1.1 2.1-2.7v-1.5c0-.8-.1-1.4-.1-1.6-.1-.7-.2-.9-.7-1l-.5-.1c-.1-.1-.1-.4 0-.5.6 0 1 .1 1.5.1s.9 0 1.5-.1c.2.1.2.4 0 .5l-.4.1c-.5.1-.6.3-.7 1 0 .2-.1.8-.1 1.6v1.6c0 1.1-.3 2.1-.9 2.6-.6.5-1.5.8-2.5.8s-2-.2-2.6-.6c-.6-.5-1-1.3-1-2.7v-2.7c0-1.2-.1-1.4-.7-1.5v-.2zm13.1 1.8c0-1.4-.1-1.5-.7-1.6h-.2c-.1-.1-.2-.5 0-.5.7-.1 1.9-.1 3.2-.1 1.2 0 2 .1 2.7.4.8.4 1.2 1 1.2 1.8 0 1-.7 1.5-1.4 1.8-.1.1-.2.2 0 .4.8 1.3 1.5 2.2 2 2.6.3.3.6.4.9.4.1.1.1.3 0 .3-.2.1-.5.1-1.1.1-1.1 0-1.8-.3-2.5-1.3-.4-.6-.9-1.4-1.1-1.8-.2-.3-.4-.4-.8-.4-.3 0-.3 0-.3.3v1.1c0 1.2.1 1.4.7 1.5h.4c.1.1.1.4 0 .5-.6 0-1.3-.1-2-.1s-1.4 0-2 .1c-.1-.1-.2-.4 0-.5h.4c.7-.1.7-.3.7-1.5v-3.5zm2 1.1c0 .2 0 .3.1.4.1.1.4.1.8.1 1 0 1.4-.7 1.4-1.5 0-1-.7-1.7-1.6-1.7-.6 0-.7 0-.7.4v2.3zm11.1 1.8c-.4 0-.4 0-.5.4l-.3.9c-.2.6-.2.8.2.8l.4.1c.1.1.1.4-.1.5-.6 0-1-.1-1.5-.1s-1 0-1.2.1c-.2-.1-.2-.4-.1-.5l.3-.1c.6-.1.7-.3 1.3-1.6l1.7-4c.2-.5.3-.7.3-1 .4-.1 1.1-.6 1.2-.8h.2c.1 0 .1.1.2.2.1.2.2.5.8 2.1l1.7 4.2c.3.7.4.8 1.1.9h.2c.1.1.1.5-.1.5-.5 0-1.1-.1-1.8-.1s-1.2 0-1.8.1c-.2-.1-.2-.4-.1-.5l.3-.1c.3-.1.4-.1.3-.5l-.4-1.2c-.1-.4-.2-.4-.6-.4h-1.7zm1.3-.6c.6 0 .6 0 .5-.4-.3-.8-.7-1.7-.8-2.1-.3.6-.5 1.1-.9 2.2-.1.3-.1.3.3.3h.9zm15.4 1.2V52c-.1.1-.3.2-.3.2h-.2c-.2-.3-.5-.6-1.6-1.8l-2.7-2.9c-.6-.7-1.1-1.2-1.3-1.4v2.7c0 .8.1 1.4.1 1.6 0 .7.2 1 .7 1h.4c.1.1.1.4 0 .5-.6 0-1-.1-1.5-.1s-.9 0-1.5.1c-.2-.1-.2-.4 0-.5l.4-.1c.5-.1.6-.3.7-1 0-.2.1-.8.1-1.6v-2.4c0-1 0-1.2-.2-1.4-.1-.1-.6-.3-.8-.3l-.2-.1c-.1-.1-.1-.5.1-.5.7.1 1.3.1 1.8.1.4 0 .7 0 1.2-.1.2.4.5.9 1.4 1.8l1.6 1.7 1.3 1.3v-1.7c0-.8-.1-1.4-.1-1.6-.1-.7-.2-.9-.7-1l-.5-.1c-.1-.1-.1-.4 0-.5.6 0 1 .1 1.5.1s.9 0 1.5-.1c.2.1.2.4 0 .5l-.4.1c-.5.1-.6.3-.7 1 0 .2-.1.8-.1 1.6v2.8zm4.9-5c.9-.7 2.2-1.1 3.4-1.1.9 0 1.7.1 2.2.3.3.1.4.1.5.1 0 .3.1 1 .2 2.1-.1.1-.4.1-.5 0-.2-.9-.8-1.8-2.4-1.8-1.5 0-2.8 1.2-2.8 3.4 0 2.3 1.3 3.5 2.9 3.5 1.5 0 2.2-1.2 2.5-2 .1-.1.4-.1.5 0-.1 1-.4 1.9-.6 2.2-.1 0-.3.1-.4.1-.4.1-1.2.3-2.2.3-1.1 0-2.2-.2-3.2-.8-.9-.6-1.7-1.8-1.7-3.2.1-1.3.7-2.4 1.6-3.1zm12.2 2.3c0 .3 0 .3.4.3h.7c1 0 1.1 0 1.3-.6l.1-.4c.1-.1.4-.1.5 0 0 .4-.1.9-.1 1.3 0 .5 0 .9.1 1.3-.1.1-.4.1-.5 0l-.1-.4c-.1-.5-.3-.6-1.3-.6h-.7c-.4 0-.4 0-.4.4v1.1c0 .5 0 1 .2 1.2.2.2.6.3 1.7.3 1.4 0 1.8-.4 2.2-1.3.1-.1.4-.1.5.1l-.5 2c-1.1 0-2.1 0-3-.1h-2c-.7 0-1.4 0-2.2.1-.1-.1-.2-.4 0-.5l.6-.1c.7-.1.7-.3.7-1.5v-3.7c0-1.2-.1-1.4-.7-1.5h-.2c-.1-.1-.1-.4 0-.5.5 0 1.2.1 1.9.1h2.9c.8 0 1.5 0 1.7-.1.1.2.1 1.1.2 1.9-.1.1-.4.2-.5.1-.1-.3-.2-.6-.3-.8-.2-.4-.7-.4-1.6-.4h-.9c-.4 0-.5.1-.5.9v1.4z"
    fill="#646569"
  />
</svg>
